<svg width="250" height="198" viewBox="0 0 250 198" fill="none" xmlns="http://www.w3.org/2000/svg">
<circle cx="6.92103" cy="6.82311" r="5.92272" transform="rotate(90 6.92103 6.82311)" fill="#F9F9F9"/>
<circle cx="32.8702" cy="6.82311" r="5.92272" transform="rotate(90 32.8702 6.82311)" fill="#F9F9F9"/>
<circle cx="59.38" cy="6.82311" r="5.92272" transform="rotate(90 59.38 6.82311)" fill="#F9F9F9"/>
<circle cx="85.8917" cy="6.82311" r="5.92272" transform="rotate(90 85.8917 6.82311)" fill="#F9F9F9"/>
<circle cx="111.839" cy="6.82311" r="5.92272" transform="rotate(90 111.839 6.82311)" fill="#F9F9F9"/>
<circle cx="138.351" cy="6.82311" r="5.92272" transform="rotate(90 138.351 6.82311)" fill="#F9F9F9"/>
<circle cx="164.86" cy="6.82311" r="5.92272" transform="rotate(90 164.86 6.82311)" fill="#F9F9F9"/>
<circle cx="191.372" cy="6.82311" r="5.92272" transform="rotate(90 191.372 6.82311)" fill="#F9F9F9"/>
<circle cx="217.319" cy="6.82311" r="5.92272" transform="rotate(90 217.319 6.82311)" fill="#F9F9F9"/>
<circle cx="243.831" cy="6.82311" r="5.92272" transform="rotate(90 243.831 6.82311)" fill="#F9F9F9"/>
<circle cx="6.92103" cy="33.3348" r="5.92272" transform="rotate(90 6.92103 33.3348)" fill="#F9F9F9"/>
<circle cx="32.8702" cy="33.3348" r="5.92272" transform="rotate(90 32.8702 33.3348)" fill="#F9F9F9"/>
<circle cx="59.38" cy="33.3348" r="5.92272" transform="rotate(90 59.38 33.3348)" fill="#F9F9F9"/>
<circle cx="85.8917" cy="33.3348" r="5.92272" transform="rotate(90 85.8917 33.3348)" fill="#F9F9F9"/>
<circle cx="111.839" cy="33.3348" r="5.92272" transform="rotate(90 111.839 33.3348)" fill="#F9F9F9"/>
<circle cx="138.351" cy="33.3348" r="5.92272" transform="rotate(90 138.351 33.3348)" fill="#F9F9F9"/>
<circle cx="164.86" cy="33.3348" r="5.92272" transform="rotate(90 164.86 33.3348)" fill="#F9F9F9"/>
<circle cx="191.372" cy="33.3348" r="5.92272" transform="rotate(90 191.372 33.3348)" fill="#F9F9F9"/>
<circle cx="217.319" cy="33.3348" r="5.92272" transform="rotate(90 217.319 33.3348)" fill="#F9F9F9"/>
<circle cx="243.831" cy="33.3348" r="5.92272" transform="rotate(90 243.831 33.3348)" fill="#F9F9F9"/>
<circle cx="6.92103" cy="59.2821" r="5.92272" transform="rotate(90 6.92103 59.2821)" fill="#F9F9F9"/>
<circle cx="32.8702" cy="59.2821" r="5.92272" transform="rotate(90 32.8702 59.2821)" fill="#F9F9F9"/>
<circle cx="59.38" cy="59.2821" r="5.92272" transform="rotate(90 59.38 59.2821)" fill="#F9F9F9"/>
<circle cx="85.8917" cy="59.2821" r="5.92272" transform="rotate(90 85.8917 59.2821)" fill="#F9F9F9"/>
<circle cx="111.839" cy="59.2821" r="5.92272" transform="rotate(90 111.839 59.2821)" fill="#F9F9F9"/>
<circle cx="138.351" cy="59.2821" r="5.92272" transform="rotate(90 138.351 59.2821)" fill="#F9F9F9"/>
<circle cx="164.86" cy="59.2821" r="5.92272" transform="rotate(90 164.86 59.2821)" fill="#F9F9F9"/>
<circle cx="191.372" cy="59.2821" r="5.92272" transform="rotate(90 191.372 59.2821)" fill="#F9F9F9"/>
<circle cx="217.319" cy="59.2821" r="5.92272" transform="rotate(90 217.319 59.2821)" fill="#F9F9F9"/>
<circle cx="243.831" cy="59.2821" r="5.92272" transform="rotate(90 243.831 59.2821)" fill="#F9F9F9"/>
<circle cx="6.92298" cy="85.7919" r="5.92272" transform="rotate(90 6.92298 85.7919)" fill="#F9F9F9"/>
<circle cx="32.8702" cy="85.7919" r="5.92272" transform="rotate(90 32.8702 85.7919)" fill="#F9F9F9"/>
<circle cx="59.38" cy="85.7919" r="5.92272" transform="rotate(90 59.38 85.7919)" fill="#F9F9F9"/>
<circle cx="85.8917" cy="85.7919" r="5.92272" transform="rotate(90 85.8917 85.7919)" fill="#F9F9F9"/>
<circle cx="111.839" cy="85.7919" r="5.92272" transform="rotate(90 111.839 85.7919)" fill="#F9F9F9"/>
<circle cx="138.351" cy="85.7919" r="5.92272" transform="rotate(90 138.351 85.7919)" fill="#F9F9F9"/>
<circle cx="164.86" cy="85.7919" r="5.92272" transform="rotate(90 164.86 85.7919)" fill="#F9F9F9"/>
<circle cx="191.372" cy="85.7919" r="5.92272" transform="rotate(90 191.372 85.7919)" fill="#F9F9F9"/>
<circle cx="217.319" cy="85.7919" r="5.92272" transform="rotate(90 217.319 85.7919)" fill="#F9F9F9"/>
<circle cx="243.831" cy="85.7919" r="5.92272" transform="rotate(90 243.831 85.7919)" fill="#F9F9F9"/>
<circle cx="6.92298" cy="112.304" r="5.92272" transform="rotate(90 6.92298 112.304)" fill="#F9F9F9"/>
<circle cx="32.8702" cy="112.304" r="5.92272" transform="rotate(90 32.8702 112.304)" fill="#F9F9F9"/>
<circle cx="59.38" cy="112.304" r="5.92272" transform="rotate(90 59.38 112.304)" fill="#F9F9F9"/>
<circle cx="85.8917" cy="112.304" r="5.92272" transform="rotate(90 85.8917 112.304)" fill="#F9F9F9"/>
<circle cx="111.839" cy="112.304" r="5.92272" transform="rotate(90 111.839 112.304)" fill="#F9F9F9"/>
<circle cx="138.351" cy="112.304" r="5.92272" transform="rotate(90 138.351 112.304)" fill="#F9F9F9"/>
<circle cx="164.86" cy="112.304" r="5.92272" transform="rotate(90 164.86 112.304)" fill="#F9F9F9"/>
<circle cx="191.372" cy="112.304" r="5.92272" transform="rotate(90 191.372 112.304)" fill="#F9F9F9"/>
<circle cx="217.319" cy="112.304" r="5.92272" transform="rotate(90 217.319 112.304)" fill="#F9F9F9"/>
<circle cx="243.831" cy="112.304" r="5.92272" transform="rotate(90 243.831 112.304)" fill="#F9F9F9"/>
<circle cx="6.92298" cy="138.815" r="5.92272" transform="rotate(90 6.92298 138.815)" fill="#F9F9F9"/>
<circle cx="32.8702" cy="138.815" r="5.92272" transform="rotate(90 32.8702 138.815)" fill="#F9F9F9"/>
<circle cx="59.38" cy="138.815" r="5.92272" transform="rotate(90 59.38 138.815)" fill="#F9F9F9"/>
<circle cx="85.8917" cy="138.815" r="5.92272" transform="rotate(90 85.8917 138.815)" fill="#F9F9F9"/>
<circle cx="111.839" cy="138.815" r="5.92272" transform="rotate(90 111.839 138.815)" fill="#F9F9F9"/>
<circle cx="138.351" cy="138.815" r="5.92272" transform="rotate(90 138.351 138.815)" fill="#F9F9F9"/>
<circle cx="164.86" cy="138.815" r="5.92272" transform="rotate(90 164.86 138.815)" fill="#F9F9F9"/>
<circle cx="191.372" cy="138.815" r="5.92272" transform="rotate(90 191.372 138.815)" fill="#F9F9F9"/>
<circle cx="217.319" cy="138.815" r="5.92272" transform="rotate(90 217.319 138.815)" fill="#F9F9F9"/>
<circle cx="243.831" cy="138.815" r="5.92272" transform="rotate(90 243.831 138.815)" fill="#F9F9F9"/>
<circle cx="6.92298" cy="164.763" r="5.92272" transform="rotate(90 6.92298 164.763)" fill="#F9F9F9"/>
<circle cx="32.8702" cy="164.763" r="5.92272" transform="rotate(90 32.8702 164.763)" fill="#F9F9F9"/>
<circle cx="59.38" cy="164.763" r="5.92272" transform="rotate(90 59.38 164.763)" fill="#F9F9F9"/>
<circle cx="85.8917" cy="164.763" r="5.92272" transform="rotate(90 85.8917 164.763)" fill="#F9F9F9"/>
<circle cx="111.839" cy="164.763" r="5.92272" transform="rotate(90 111.839 164.763)" fill="#F9F9F9"/>
<circle cx="138.351" cy="164.763" r="5.92272" transform="rotate(90 138.351 164.763)" fill="#F9F9F9"/>
<circle cx="164.86" cy="164.763" r="5.92272" transform="rotate(90 164.86 164.763)" fill="#F9F9F9"/>
<circle cx="191.372" cy="164.763" r="5.92272" transform="rotate(90 191.372 164.763)" fill="#F9F9F9"/>
<circle cx="217.319" cy="164.763" r="5.92272" transform="rotate(90 217.319 164.763)" fill="#F9F9F9"/>
<circle cx="243.831" cy="164.763" r="5.92272" transform="rotate(90 243.831 164.763)" fill="#F9F9F9"/>
<circle cx="6.92298" cy="191.274" r="5.92272" transform="rotate(90 6.92298 191.274)" fill="#F9F9F9"/>
<circle cx="32.8702" cy="191.274" r="5.92272" transform="rotate(90 32.8702 191.274)" fill="#F9F9F9"/>
<circle cx="59.38" cy="191.274" r="5.92272" transform="rotate(90 59.38 191.274)" fill="#F9F9F9"/>
<circle cx="85.8917" cy="191.274" r="5.92272" transform="rotate(90 85.8917 191.274)" fill="#F9F9F9"/>
<circle cx="111.839" cy="191.274" r="5.92272" transform="rotate(90 111.839 191.274)" fill="#F9F9F9"/>
<circle cx="138.351" cy="191.274" r="5.92272" transform="rotate(90 138.351 191.274)" fill="#F9F9F9"/>
<circle cx="164.86" cy="191.274" r="5.92272" transform="rotate(90 164.86 191.274)" fill="#F9F9F9"/>
<circle cx="191.372" cy="191.274" r="5.92272" transform="rotate(90 191.372 191.274)" fill="#F9F9F9"/>
<circle cx="217.319" cy="191.274" r="5.92272" transform="rotate(90 217.319 191.274)" fill="#F9F9F9"/>
<circle cx="243.831" cy="191.274" r="5.92272" transform="rotate(90 243.831 191.274)" fill="#F9F9F9"/>
</svg>
